<?xml version="1.0" encoding="utf-8"?>
<!-- From: https://commons.wikimedia.org/wiki/File:U-Bahnlogo_Berlin.png -->
<svg xmlns="http://www.w3.org/2000/svg" width="500" height="500">
  <path fill="#039" d="M0 0h500v500H0z"/>
  <path d="M269 462c32.5-3.1 62.8-13.5 86.9-29.5 12.1-8.1 29.2-24.9 36.6-35.9 10.8-16.2 18.7-35.6 22.9-56.6 1.7-8.1 1.9-22.4 2.2-155l.4-146.1H317.9v133.8c0 87.9-.4 137.2-1.1 143.8-1.4 11.9-5.3 26.1-9.2 33.4-5 9.3-14.2 18-23.8 22.7-26.4 13-65 8.3-83.3-10-9.3-9.3-15.7-24.3-18.4-43.1-.6-4.6-1-58.7-1-144V38.9h-99v138.4c0 138.7.3 150.4 3.8 168 8.8 43.3 35.8 77.7 77.1 98.4 30.4 15.1 69.6 21.9 106 18.3z" fill="#fff"/>
</svg>
